<?xml version="1.0" standalone="no"?><!DOCTYPE svg PUBLIC "-//W3C//DTD SVG 1.1//EN" "http://www.w3.org/Graphics/SVG/1.1/DTD/svg11.dtd"><svg t="1647681019044" class="icon" viewBox="0 0 1024 1024" version="1.1" xmlns="http://www.w3.org/2000/svg" p-id="2569" xmlns:xlink="http://www.w3.org/1999/xlink" width="200" height="200"><defs><style type="text/css"></style></defs><path d="M515.3792 507.5968m-392.3968 0a392.3968 392.3968 0 1 0 784.7936 0 392.3968 392.3968 0 1 0-784.7936 0Z" fill="#9EBFEF" p-id="2570"></path><path d="M460.5952 424.9088m-284.3648 0a284.3648 284.3648 0 1 0 568.7296 0 284.3648 284.3648 0 1 0-568.7296 0Z" fill="#C0DAF9" p-id="2571"></path><path d="M433.4592 376.6784m-180.736 0a180.736 180.736 0 1 0 361.472 0 180.736 180.736 0 1 0-361.472 0Z" fill="#E9F5FF" p-id="2572"></path><path d="M663.8592 466.432L487.5776 364.6464c-32.3072-18.6368-72.6528 4.6592-72.6528 41.9328v203.52c0 37.2736 40.3456 60.5696 72.6528 41.9328l176.2304-101.7344c32.3072-18.6368 32.3072-65.2288 0.0512-83.8656z" fill="#5AB3FF" p-id="2573"></path><path d="M501.3504 382.0544l88.9856 94.0032c15.7184 16.5888 13.1072 43.2128-5.5296 56.4736L443.8528 632.832c-4.2496 3.0208-10.1888 1.4336-12.3904-3.2768l-10.8544-23.2448c-0.512-1.0752-0.768-2.2016-0.768-3.3792l-4.4032-224c-0.0512-3.0208 1.536-5.888 4.1472-7.3728l21.504-12.3904c2.2528-1.3312 5.0176-1.4848 7.4752-0.4608l49.9712 21.4016c1.0752 0.4608 1.9968 1.1264 2.816 1.9456z" fill="#7BD3FF" p-id="2574"></path><path d="M884.0192 873.8816h-167.5264c129.1776-71.2192 216.8832-208.6912 216.8832-366.2848 0-230.5024-187.4944-417.9968-417.9968-417.9968S97.3824 277.0944 97.3824 507.5968s187.4944 417.9968 417.9968 417.9968c6.5024 0 13.0048-0.2048 19.456-0.512h349.184c14.1312 0 25.6-11.4688 25.6-25.6s-11.4688-25.6-25.6-25.6zM148.5824 507.5968c0-202.24 164.5568-366.7968 366.7968-366.7968s366.7968 164.5568 366.7968 366.7968c0 195.84-154.3168 356.352-347.7504 366.2848h-9.984c-1.1776 0-2.3552 0.2048-3.4816 0.3584-1.8432 0.0512-3.6864 0.1536-5.5296 0.1536-202.2912 0-366.848-164.5568-366.848-366.7968z" fill="#434A54" p-id="2575"></path><path d="M713.6768 508.3648c0-26.7776-13.824-50.7392-37.0176-64.1024L500.3776 342.4768c-23.1936-13.3632-50.8416-13.3632-74.0352 0-23.1936 13.3632-37.0176 37.3248-37.0176 64.1024v203.52c0 26.7776 13.824 50.7392 37.0176 64.1024 11.5712 6.7072 24.32 10.0352 37.0176 10.0352 12.6976 0 25.4464-3.328 37.0176-10.0352l176.2304-101.7344c23.1936-13.3632 37.0688-37.376 37.0688-64.1024z m-62.6176 19.7632l-176.2304 101.7344c-10.2912 5.9392-19.4048 1.9968-22.8352 0s-11.4176-7.8848-11.4176-19.7632V406.5792c0-11.8784 7.9872-17.7664 11.4176-19.7632 2.0992-1.2288 6.2464-3.1232 11.52-3.1232 3.3792 0 7.2704 0.8192 11.3152 3.1232l176.2304 101.7344c10.2912 5.9392 11.4176 15.8208 11.4176 19.7632s-1.1264 13.8752-11.4176 19.8144z" fill="#434A54" p-id="2576"></path></svg>